<svg width="172" height="70" viewBox="0 0 172 70" fill="none" xmlns="http://www.w3.org/2000/svg">
    <g clip-path="url(#clip0_93_1090)">
    <path fill-rule="evenodd" clip-rule="evenodd" d="M19.6098 4.99512H34.3399C36.3454 4.99512 47.4044 11.6658 47.4167 13.6799L47.5213 30.6717C47.5337 32.6859 29.5317 41.0013 29.5 43.0151L29.2809 56.8827L27.6004 58.623H24.5527L22.9075 56.8827V43.0461C22.9075 41.0319 5.54789 32.1863 5.54491 30.1722L5.51953 13.6978C5.51644 11.6836 17.6042 4.99512 19.6098 4.99512Z" fill="#FEFEFE"/>
    <path fill-rule="evenodd" clip-rule="evenodd" d="M17.464 0.73717L35.6364 0.736206L47.4167 12.5153V14.8448L39.0564 14.8542L37.9611 13.3226L31.9163 13.3314L31.9187 12.8222L37.4924 12.7823L37.4915 9.19968L35.3611 6.90757L17.3439 7.01411L15.1979 9.4695L15.1963 13.1797L13.5189 14.8448L12.5071 14.8517L12.5076 12.8161L11.9999 12.3001L7.85814 12.2828L6.96871 13.2671L6.98502 14.8448H5.51953V12.5508L17.464 0.73717Z" stroke="#FEFEFE" stroke-width="0.5071" stroke-miterlimit="22.9256" stroke-linecap="round" stroke-linejoin="round"/>
    <path fill-rule="evenodd" clip-rule="evenodd" d="M17.464 0.73717L35.6364 0.736206L47.4167 12.5153V14.8448L39.0564 14.8542L37.9611 13.3226L31.9163 13.3314L31.9187 12.8222L37.4924 12.7823L37.4915 9.19968L35.3611 6.90757L17.3439 7.0141L15.1979 9.4695L15.1963 13.1797L13.5189 14.8448L12.5071 14.8517L12.5076 12.8161L11.9999 12.3001L7.85814 12.2828L6.96871 13.2671L6.98502 14.8448H5.51953V12.5508L17.464 0.73717Z" fill="#1E91CF"/>
    <path d="M7.01166 15.8264H5.49414V16.8392H7.01166V15.8264Z" stroke="#FEFEFE" stroke-width="0.2531" stroke-miterlimit="22.9256" stroke-linecap="round" stroke-linejoin="round"/>
    <path fill-rule="evenodd" clip-rule="evenodd" d="M5.49414 15.8264H7.01166V16.8392H5.49414V15.8264Z" fill="#1E91CF"/>
    <path d="M29.4467 15.3503H23.4922V18.3257H29.4467V15.3503Z" stroke="#FEFEFE" stroke-width="0.2523" stroke-miterlimit="22.9256" stroke-linecap="round" stroke-linejoin="round"/>
    <path fill-rule="evenodd" clip-rule="evenodd" d="M23.4922 15.3503H29.4467V18.3257H23.4922V15.3503Z" fill="#1E91CF"/>
    <path d="M47.4763 15.8291H39V16.8419H47.4763V15.8291Z" stroke="#FEFEFE" stroke-width="0.2557" stroke-miterlimit="22.9256" stroke-linecap="round" stroke-linejoin="round"/>
    <path fill-rule="evenodd" clip-rule="evenodd" d="M39 15.8291H47.4763V16.8419H39V15.8291Z" fill="#1E91CF"/>
    <path fill-rule="evenodd" clip-rule="evenodd" d="M0.818955 19.2625H6.97722L7.02104 21.1646L7.92348 21.8262L11.332 21.7959L12.4212 21.109L12.4395 19.3665L13.4401 19.3642L17.2962 23.9093L21.4691 23.8981L21.4785 28.9005L22.4977 29.9437L22.4743 37.4794L22.983 37.9883L23.4917 37.9832L23.495 30.8882L24.4857 30.9158L24.49 38.0136L25.4943 38.0065L25.4692 30.9089L25.9718 30.9135L25.9727 37.986L29.4943 37.9817L29.9978 37.4794L29.9908 29.9413L31.301 28.8978L31.3071 24.9066L31.302 23.8938L35.7139 23.8911L39.292 19.3554L51.8736 19.2625L47.4468 23.8495L47.5295 31.4546L35.8584 43.0021L31.0021 43.0212L30.9936 46.0375L29.9772 47.0419L29.4961 46.0385L29.4998 43.0152L29.4979 38.4628L22.9543 38.4552L22.9751 42.9917L22.983 46.0408L29.4961 46.0385L29.9772 47.0419L29.9996 47.9758L31.4866 49.0739L31.4972 55.6407L25.9942 55.6076L25.9805 49.0684L24.9796 49.0669L24.9968 55.6128L24.4864 55.6122L24.4933 49.066L22.9794 49.0642L22.9967 56.0933L24.9898 56.6111L30.4548 56.6077L28.9986 57.6163L23.408 57.6242L21.0089 55.6025L20.9838 49.0618L22.4855 48.059L22.4888 47.0452L21.4716 46.0385L21.4742 42.997L17.2038 43.0185L5.5434 31.386L5.54947 24.0446L0.785156 19.7657L0.818955 19.2625Z" stroke="#FEFEFE" stroke-width="0.5068" stroke-miterlimit="22.9256" stroke-linecap="round" stroke-linejoin="round"/>
    <path fill-rule="evenodd" clip-rule="evenodd" d="M0.818955 19.2625H6.97722L7.02104 21.1646L7.92348 21.8262L11.332 21.7959L12.4212 21.109L12.4395 19.3665L13.4401 19.3642L17.2962 23.9093L21.4691 23.8981L21.4785 28.9005L22.4977 29.9437L22.4743 37.4794L22.983 37.9883L23.4917 37.9832L23.495 30.8882L24.4857 30.9158L24.49 38.0136L25.4943 38.0065L25.4692 30.9089L25.9718 30.9135L25.9727 37.986L29.4943 37.9817L29.9978 37.4794L29.9908 29.9413L31.301 28.8978L31.3071 24.9066L31.302 23.8938L35.7139 23.8911L39.292 19.3554L51.8736 19.2625L47.4468 23.8495L47.5295 31.4546L35.8584 43.0021L31.0021 43.0212L30.9936 46.0375L29.9772 47.0419L29.4961 46.0385L29.4998 43.0152L29.4979 38.4628L22.9543 38.4552L22.9751 42.9917L22.983 46.0408L29.4961 46.0385L29.9772 47.0419L29.9996 47.9758L31.4866 49.0739L31.4972 55.6407L25.9942 55.6076L25.9805 49.0684L24.9796 49.0669L24.9968 55.6128L24.4864 55.6122L24.4933 49.066L22.9794 49.0642L22.9967 56.0933L24.9898 56.6111L30.4548 56.6077L28.9986 57.6163L23.408 57.6242L21.0089 55.6025L20.9838 49.0618L22.4855 48.059L22.4888 47.0452L21.4716 46.0385L21.4742 42.997L17.2038 43.0185L5.5434 31.386L5.54947 24.0446L0.785156 19.7657L0.818955 19.2625Z" fill="#1E91CF"/>
    <path fill-rule="evenodd" clip-rule="evenodd" d="M26.3346 69.7016L27.9781 58.623H24.5469L26.3346 69.7016Z" stroke="#FEFEFE" stroke-width="0.5071" stroke-miterlimit="22.9256" stroke-linecap="round" stroke-linejoin="round"/>
    <path fill-rule="evenodd" clip-rule="evenodd" d="M26.3346 69.7016L27.9781 58.623H24.5469L26.3346 69.7016Z" fill="#1E91CF"/>
    <path fill-rule="evenodd" clip-rule="evenodd" d="M17.464 0.73717L35.6364 0.736206L47.4167 12.5153V14.8448L39.0564 14.8542L37.9611 13.3226L31.9163 13.3314L31.9187 12.8222L37.4924 12.7823L37.4915 9.19968L35.3611 6.90757L17.3439 7.01411L15.1979 9.4695L15.1963 13.1797L13.5189 14.8448L12.5071 14.8517L12.5076 12.8161L11.9999 12.3001L7.85814 12.2828L6.96871 13.2671L6.98502 14.8448H5.51953V12.5508L17.464 0.73717Z" stroke="#FEFEFE" stroke-width="0.5071" stroke-miterlimit="22.9256" stroke-linecap="round" stroke-linejoin="round"/>
    <path fill-rule="evenodd" clip-rule="evenodd" d="M17.464 0.73717L35.6364 0.736206L47.4167 12.5153V14.8448L39.0564 14.8542L37.9611 13.3226L31.9163 13.3314L31.9187 12.8222L37.4924 12.7823L37.4915 9.19968L35.3611 6.90757L17.3439 7.0141L15.1979 9.4695L15.1963 13.1797L13.5189 14.8448L12.5071 14.8517L12.5076 12.8161L11.9999 12.3001L7.85814 12.2828L6.96871 13.2671L6.98502 14.8448H5.51953V12.5508L17.464 0.73717Z" fill="#1E91CF"/>
    <path d="M15.9492 2.1853L37.413 2.3291" stroke="#FEFEFE" stroke-width="0.1006" stroke-miterlimit="22.9256"/>
    <path d="M13.0391 4.9231L40.189 5.067" stroke="#FEFEFE" stroke-width="0.1273" stroke-miterlimit="22.9256"/>
    <path d="M10.1816 7.72339L42.8104 7.86687" stroke="#FEFEFE" stroke-width="0.1528" stroke-miterlimit="22.9256"/>
    <path d="M7.24414 10.6753L45.9151 10.8189" stroke="#FEFEFE" stroke-width="0.1811" stroke-miterlimit="22.9256"/>
    <path d="M5.41211 13.373L47.5009 13.5166" stroke="#FEFEFE" stroke-width="0.1973" stroke-miterlimit="22.9256"/>
    <path d="M2.27148 21.303L49.9347 21.4468" stroke="#FEFEFE" stroke-width="0.2234" stroke-miterlimit="22.9256"/>
    <path d="M5.41016 24.1089L47.482 24.2525" stroke="#FEFEFE" stroke-width="0.1973" stroke-miterlimit="22.9256"/>
    <path d="M5.53906 26.8611L47.4977 27.0047" stroke="#FEFEFE" stroke-width="0.1964" stroke-miterlimit="22.9256"/>
    <path d="M5.48047 29.9443L47.6062 30.0878" stroke="#FEFEFE" stroke-width="0.1973" stroke-miterlimit="22.9256"/>
    <path d="M29.7622 26.2317H22.6133V28.8851H29.7622V26.2317Z" fill="url(#paint0_linear_93_1090)"/>
    <path d="M7.19922 33.2234L45.7922 33.367" stroke="#FEFEFE" stroke-width="0.1809" stroke-miterlimit="22.9256"/>
    <path d="M10.5801 36.5981L42.3971 36.7419" stroke="#FEFEFE" stroke-width="0.1491" stroke-miterlimit="22.9256"/>
    <path d="M13.8398 39.8667L39.0776 40.0103" stroke="#FEFEFE" stroke-width="0.1182" stroke-miterlimit="22.9256"/>
    <path d="M15.9483 2.23499L15.8984 4.97295" stroke="#FEFEFE" stroke-width="0.3166" stroke-miterlimit="22.9256"/>
    <path d="M25.4073 2.23499L25.3574 4.97295" stroke="#FEFEFE" stroke-width="0.3166" stroke-miterlimit="22.9256"/>
    <path d="M34.8664 2.23499L34.8164 4.97295" stroke="#FEFEFE" stroke-width="0.3166" stroke-miterlimit="22.9256"/>
    <path d="M20.7511 0.582642L20.7012 2.10565" stroke="#FEFEFE" stroke-width="0.3169" stroke-miterlimit="22.9256"/>
    <path d="M30.2098 0.57605L30.1602 2.10569" stroke="#FEFEFE" stroke-width="0.3169" stroke-miterlimit="22.9256"/>
    <path d="M20.7511 4.86743L20.7012 7.60507" stroke="#FEFEFE" stroke-width="0.3169" stroke-miterlimit="22.9256"/>
    <path d="M11.2578 6.65234L11.2781 7.63966" stroke="#FEFEFE" stroke-width="0.3166" stroke-miterlimit="22.9256"/>
    <path d="M30.2098 4.88062L30.1602 7.61868" stroke="#FEFEFE" stroke-width="0.3169" stroke-miterlimit="22.9256"/>
    <path d="M39.6688 4.97583L39.6191 7.71379" stroke="#FEFEFE" stroke-width="0.3169" stroke-miterlimit="22.9256"/>
    <path d="M13.6532 7.91797L13.6035 10.6556" stroke="#FEFEFE" stroke-width="0.3169" stroke-miterlimit="22.9256"/>
    <path d="M42.8114 7.91797L42.7617 10.6556" stroke="#FEFEFE" stroke-width="0.3169" stroke-miterlimit="22.9256"/>
    <path d="M11.292 10.8818L11.2422 13.6195" stroke="#FEFEFE" stroke-width="0.3169" stroke-miterlimit="22.9256"/>
    <path d="M39.7723 10.8818L39.7227 13.6195" stroke="#FEFEFE" stroke-width="0.3169" stroke-miterlimit="22.9256"/>
    <path d="M13.6532 18.4917L13.6035 21.2294" stroke="#FEFEFE" stroke-width="0.3169" stroke-miterlimit="22.9256"/>
    <path d="M23.1121 18.4917L23.0625 21.2294" stroke="#FEFEFE" stroke-width="0.3169" stroke-miterlimit="22.9256"/>
    <path d="M32.5714 18.4917L32.5215 21.2294" stroke="#FEFEFE" stroke-width="0.3166" stroke-miterlimit="22.9256"/>
    <path d="M42.0285 18.4917L41.9785 21.2294" stroke="#FEFEFE" stroke-width="0.3166" stroke-miterlimit="22.9256"/>
    <path d="M51.4453 19.074L51.4819 19.861" stroke="#FEFEFE" stroke-width="0.3163" stroke-miterlimit="22.9256"/>
    <path d="M4.15625 19.1704L4.18166 21.2297" stroke="#FEFEFE" stroke-width="0.3166" stroke-miterlimit="22.9256"/>
    <path d="M9.52425 21.55L9.47461 24.2877" stroke="#FEFEFE" stroke-width="0.3169" stroke-miterlimit="22.9256"/>
    <path d="M20.7511 21.3704L20.7012 24.1083" stroke="#FEFEFE" stroke-width="0.3169" stroke-miterlimit="22.9256"/>
    <path d="M30.2098 21.3704L30.1602 24.1083" stroke="#FEFEFE" stroke-width="0.3169" stroke-miterlimit="22.9256"/>
    <path d="M37.9132 21.478L37.8633 24.216" stroke="#FEFEFE" stroke-width="0.3169" stroke-miterlimit="22.9256"/>
    <path d="M46.5516 21.5139L46.502 24.2519" stroke="#FEFEFE" stroke-width="0.3169" stroke-miterlimit="22.9256"/>
    <path d="M13.6532 24.0952L13.6035 26.8333" stroke="#FEFEFE" stroke-width="0.3169" stroke-miterlimit="22.9256"/>
    <path d="M32.5714 24.0952L32.5215 26.8333" stroke="#FEFEFE" stroke-width="0.3166" stroke-miterlimit="22.9256"/>
    <path d="M42.0285 24.0952L41.9785 26.8333" stroke="#FEFEFE" stroke-width="0.3166" stroke-miterlimit="22.9256"/>
    <path d="M9.52425 27.0701L9.47461 29.8077" stroke="#FEFEFE" stroke-width="0.3169" stroke-miterlimit="22.9256"/>
    <path d="M18.9832 27.0701L18.9336 29.8077" stroke="#FEFEFE" stroke-width="0.3169" stroke-miterlimit="22.9256"/>
    <path d="M37.9012 27.0701L37.8516 29.8077" stroke="#FEFEFE" stroke-width="0.3169" stroke-miterlimit="22.9256"/>
    <path d="M13.6532 30.1331L13.6035 33.234" stroke="#FEFEFE" stroke-width="0.3169" stroke-miterlimit="22.9256"/>
    <path d="M32.5714 30.1331L32.5215 33.234" stroke="#FEFEFE" stroke-width="0.3166" stroke-miterlimit="22.9256"/>
    <path d="M42.0285 30.1331L41.9785 33.234" stroke="#FEFEFE" stroke-width="0.3166" stroke-miterlimit="22.9256"/>
    <path d="M17.9969 33.4502L17.9473 36.5511" stroke="#FEFEFE" stroke-width="0.3169" stroke-miterlimit="22.9256"/>
    <path d="M36.9168 33.4502L36.8672 36.5511" stroke="#FEFEFE" stroke-width="0.3169" stroke-miterlimit="22.9256"/>
    <path d="M13.6532 36.7175L13.6035 39.6307" stroke="#FEFEFE" stroke-width="0.3169" stroke-miterlimit="22.9256"/>
    <path d="M23.1121 36.7175L23.0625 39.8185" stroke="#FEFEFE" stroke-width="0.3169" stroke-miterlimit="22.9256"/>
    <path d="M32.5714 36.7175L32.5215 39.8185" stroke="#FEFEFE" stroke-width="0.3166" stroke-miterlimit="22.9256"/>
    <path d="M18.9832 40.0293L18.9336 43.2336" stroke="#FEFEFE" stroke-width="0.3169" stroke-miterlimit="22.9256"/>
    <path d="M37.8784 40.0288L37.877 41.1727" stroke="#FEFEFE" stroke-width="0.3163" stroke-miterlimit="22.9256"/>
    <path d="M16.9434 42.9492L35.9524 43.0927" stroke="#FEFEFE" stroke-width="0.089" stroke-miterlimit="22.9256"/>
    <path d="M29.3495 43.426H23.4629V45.6107H29.3495V43.426Z" fill="url(#paint1_linear_93_1090)"/>
    <path d="M29.3495 41.0515H23.4629V43.2361H29.3495V41.0515Z" fill="url(#paint2_linear_93_1090)"/>
    <path d="M29.3495 38.6631H23.4629V40.8478H29.3495V38.6631Z" fill="url(#paint3_linear_93_1090)"/>
    <path fill-rule="evenodd" clip-rule="evenodd" d="M66.6579 38.1451V49.1013H63.5276V43.0851L59.5216 49.1013H56.3633V38.1451H59.5089V44.2071L63.5449 38.1451H66.6579ZM68.9004 38.1451H72.2264V41.9706H75.8689V38.1451H79.2098V49.1013H75.8689V44.6637H72.2264V49.1013H68.9004V38.1451ZM88.6012 44.6178L91.5211 45.5128C91.3256 46.3445 91.017 47.0405 90.593 47.5965C90.1717 48.1552 89.6497 48.5759 89.0229 48.8591C88.3981 49.142 87.603 49.2849 86.6371 49.2849C85.4632 49.2849 84.5076 49.1114 83.7626 48.7671C83.0203 48.4202 82.3808 47.8107 81.841 46.9412C81.3018 46.0713 81.031 44.9544 81.031 43.5976C81.031 41.7869 81.5049 40.3944 82.453 39.4201C83.4038 38.4486 84.7461 37.9614 86.4818 37.9614C87.8387 37.9614 88.9071 38.2395 89.685 38.7979C90.46 39.3564 91.0397 40.2135 91.4157 41.3711L88.481 42.0318C88.3782 41.7001 88.2703 41.4579 88.1576 41.3049C87.9693 41.0473 87.7411 40.8484 87.4728 40.7106C87.2016 40.5705 86.9007 40.5015 86.5673 40.5015C85.8096 40.5015 85.2302 40.8102 84.8285 41.4248C84.5254 41.8813 84.3722 42.6004 84.3722 43.5773C84.3722 44.7914 84.5529 45.62 84.9168 46.0713C85.28 46.5202 85.7894 46.7448 86.4463 46.7448C87.0835 46.7448 87.5655 46.5637 87.8917 46.1991C88.2177 45.8367 88.4535 45.3089 88.6012 44.6178ZM92.3761 38.1451H102.505V40.8536H99.1038V49.1013H95.7781V40.8536H92.3761V38.1451ZM103.983 38.1451H109.521C110.728 38.1451 111.631 38.4359 112.233 39.0197C112.832 39.6037 113.133 40.435 113.133 41.5141C113.133 42.621 112.805 43.4881 112.15 44.1103C111.496 44.735 110.495 45.046 109.15 45.046H107.324V49.1013H103.983V38.1451ZM107.324 42.8274H108.144C108.791 42.8274 109.245 42.7127 109.506 42.4859C109.767 42.2589 109.898 41.9681 109.898 41.6133C109.898 41.2691 109.785 40.9783 109.556 40.7386C109.331 40.4992 108.904 40.3792 108.277 40.3792H107.324V42.8274ZM113.858 38.1451H117.47L118.968 42.6593L120.435 38.1451H123.822L120.29 46.607C120.002 47.2881 119.748 47.798 119.532 48.1322C119.317 48.4688 118.998 48.7443 118.574 48.961C118.15 49.1777 117.568 49.2849 116.828 49.2849C116.437 49.2849 115.762 49.2288 114.806 49.114V46.8519C115.371 46.9129 115.782 46.9437 116.04 46.9437C116.811 46.9437 117.28 46.6529 117.445 46.0689L113.858 38.1451ZM124.948 38.1451H129.34L131.013 44.8117L132.691 38.1451H137.064V49.1013H134.339V40.7489L132.238 49.1013H129.769L127.672 40.7489V49.1013H124.948V38.1451ZM139.183 38.1451H148.093V40.4861H142.524V42.2306H147.686V44.4648H142.524V46.6224H148.258V49.1013H139.183V38.1451ZM150.067 38.1451H153.393V41.9706H157.035V38.1451H160.376V49.1013H157.035V44.6637H153.393V49.1013H150.067V38.1451ZM161.836 38.1451H171.965V40.8536H168.564V49.1013H165.238V40.8536H161.836V38.1451Z" fill="#5A6672"/>
    <path fill-rule="evenodd" clip-rule="evenodd" d="M62.7759 16.898H66.377C69.6783 16.898 72.1315 17.5484 73.7263 18.8441C75.3263 20.1456 76.1237 22.1657 76.1237 24.9043C76.1237 27.1507 75.3926 28.8653 73.9294 30.0535C72.4618 31.2418 70.364 31.8357 67.6216 31.8357H56.041V7.52759H74.4172V12.4503H62.7759V16.898ZM62.7759 26.6077H66.2247C68.3324 26.6077 69.3888 25.7585 69.3888 24.0558C69.3888 22.5674 68.3324 21.8204 66.2247 21.8204H62.7759V26.6077ZM79.6839 7.52759H90.8984C93.3417 7.52759 95.1702 8.1726 96.389 9.46828C97.6031 10.7643 98.2124 12.6087 98.2124 15.0022C98.2124 17.4576 97.5469 19.3816 96.2213 20.7627C94.8957 22.1485 92.8693 22.839 90.1467 22.839H86.4493V31.8357H79.6839V7.52759ZM86.4493 17.9163H88.1101C89.4206 17.9163 90.3399 17.6616 90.8683 17.1582C91.3962 16.6546 91.6607 16.0096 91.6607 15.2226C91.6607 14.459 91.4318 13.8137 90.9697 13.2819C90.5125 12.7502 89.6494 12.4843 88.3793 12.4843H86.4493V17.9163ZM101.722 7.52759H119.763V12.7217H108.487V16.5924H118.94V21.549H108.487V26.336H120.098V31.8357H101.722V7.52759ZM123.76 7.52759H130.495V16.015H137.87V7.52759H144.635V31.8357H137.87V21.99H130.495V31.8357H123.76V7.52759ZM172.001 37.1321H166.577V31.8357H152.649V37.1321H147.225V26.2341H149.475C150.74 22.307 151.37 17.8823 151.37 12.9484V7.52759H169.654V26.2341H172.001V37.1321ZM162.919 26.2341V13.5026H157.495V13.8197C157.495 17.1751 156.987 21.3169 155.966 26.2341H162.919Z" fill="#5A6672"/>
    </g>
    <defs>
    <linearGradient id="paint0_linear_93_1090" x1="29.7622" y1="27.5584" x2="22.6133" y2="27.5584" gradientUnits="userSpaceOnUse">
    <stop stop-color="#1E91CF"/>
    <stop offset="1" stop-color="white"/>
    </linearGradient>
    <linearGradient id="paint1_linear_93_1090" x1="29.3495" y1="44.5184" x2="23.4623" y2="44.5184" gradientUnits="userSpaceOnUse">
    <stop stop-color="#1E91CF"/>
    <stop offset="1" stop-color="white"/>
    </linearGradient>
    <linearGradient id="paint2_linear_93_1090" x1="29.3495" y1="42.1438" x2="23.4623" y2="42.1438" gradientUnits="userSpaceOnUse">
    <stop stop-color="#1E91CF"/>
    <stop offset="1" stop-color="white"/>
    </linearGradient>
    <linearGradient id="paint3_linear_93_1090" x1="29.3495" y1="39.7554" x2="23.4623" y2="39.7554" gradientUnits="userSpaceOnUse">
    <stop stop-color="#1E91CF"/>
    <stop offset="1" stop-color="white"/>
    </linearGradient>
    <clipPath id="clip0_93_1090">
    <rect width="172" height="70" fill="white"/>
    </clipPath>
    </defs>
    </svg>
    