<svg width="12" height="10" viewBox="0 0 12 10" fill="none" xmlns="http://www.w3.org/2000/svg">
<path fill-rule="evenodd" clip-rule="evenodd" d="M9.67706 1.07257C9.87218 0.879149 10.1356 0.770293 10.4103 0.769535C10.6851 0.768777 10.9491 0.876178 11.1453 1.06852C11.3415 1.26086 11.4541 1.52269 11.4587 1.79739C11.4634 2.0721 11.3598 2.33761 11.1703 2.53652L5.60448 9.49378C5.50883 9.59681 5.39337 9.67949 5.26503 9.73688C5.13669 9.79428 4.99809 9.8252 4.85752 9.8278C4.71695 9.83041 4.57731 9.80464 4.44693 9.75203C4.31655 9.69943 4.19811 9.62108 4.0987 9.52166L0.410942 5.8325C0.308205 5.73677 0.225802 5.62133 0.168649 5.49306C0.111497 5.36479 0.080765 5.22632 0.0782877 5.08592C0.0758105 4.94552 0.101639 4.80605 0.154231 4.67585C0.206823 4.54564 0.285102 4.42736 0.384398 4.32807C0.483694 4.22877 0.601972 4.15049 0.732178 4.0979C0.862383 4.04531 1.00185 4.01948 1.14225 4.02196C1.28266 4.02443 1.42112 4.05516 1.54939 4.11232C1.67766 4.16947 1.7931 4.25187 1.88884 4.35461L4.80837 7.27275L9.65057 1.10324C9.65921 1.09244 9.66852 1.0822 9.67845 1.07257H9.67706Z" fill="white"/>
</svg>
